<svg width="48" height="47" viewBox="0 0 48 47" fill="none" xmlns="http://www.w3.org/2000/svg">
<path fill-rule="evenodd" clip-rule="evenodd" d="M24 47C10.7452 47 0 36.4787 0 23.5C0 10.5213 10.7452 0 24 0C37.2548 0 48 10.5213 48 23.5C48 36.4787 37.2548 47 24 47ZM24.334 22.1813C26.2991 22.1813 35.854 16.9202 35.854 16.9202L35.8693 15.9802C35.8693 14.9425 35.0092 14.1002 33.9465 14.1002H14.7215C13.6597 14.1002 12.7996 14.9425 12.7996 15.9802V16.8178C12.7996 16.8178 22.4591 22.1813 24.334 22.1813ZM12.8149 19.7394C12.8149 19.7394 22.4591 24.7655 24.334 24.7655C26.3893 24.7655 35.854 19.7394 35.854 19.7394L35.8693 31.0194C35.8693 32.0572 35.0092 32.8994 33.9465 32.8994H14.7215C13.6607 32.8994 12.7996 32.0572 12.7996 31.0194L12.8149 19.7394Z" fill="white"/>
</svg>
