<svg width="48" height="47" viewBox="0 0 48 47" fill="none" xmlns="http://www.w3.org/2000/svg">
<path fill-rule="evenodd" clip-rule="evenodd" d="M24 0C10.7452 0 0 10.5213 0 23.5C0 36.4787 10.7452 47 24 47C37.2548 47 48 36.4787 48 23.5C48 10.5213 37.2548 0 24 0ZM16.7878 11.7498C16.8588 11.805 16.9151 11.805 16.9714 11.7978C17.2629 11.7738 17.5127 11.8433 17.6743 12.1047C17.7028 12.15 17.7313 12.1953 17.7599 12.2405C18.094 12.7709 18.4288 13.3022 18.747 13.8457C18.9773 14.2386 19.197 14.6379 19.4169 15.0376C19.5782 15.3307 19.7396 15.624 19.9054 15.9151C19.9695 16.0332 20.0497 16.1443 20.1299 16.2555C20.1752 16.3183 20.2205 16.3811 20.2629 16.4451C20.3652 16.6044 20.463 16.768 20.5586 16.9278L20.5739 16.9535C20.7797 17.3348 20.7699 17.7184 20.4637 18.023C20.1415 18.3456 19.7951 18.6512 19.4494 18.9562C19.3275 19.0638 19.2056 19.1714 19.0849 19.2795C18.9349 19.4144 18.7826 19.5471 18.6304 19.6797C18.3902 19.889 18.1501 20.0982 17.9192 20.3155C17.6253 20.5936 17.5494 20.9414 17.7478 21.3083C17.7661 21.3419 17.7845 21.3756 17.8028 21.4092C18.0905 21.9367 18.3777 22.4635 18.6931 22.9797C19.9372 25.0108 21.5266 26.7373 23.5348 28.0682C24.3087 28.5838 25.1144 29.0562 25.9275 29.507C26.694 29.9315 26.9928 29.8595 27.5879 29.2097C27.9023 28.8678 28.2103 28.5229 28.5187 28.1775C28.7533 27.9148 28.9882 27.6517 29.2263 27.3896C29.3586 27.2433 29.5178 27.1138 29.6721 26.9891C29.9855 26.7301 30.3284 26.7014 30.6884 26.8788C30.711 26.8896 30.7339 26.9001 30.7569 26.9107C30.8363 26.9471 30.9164 26.9839 30.9847 27.0323C31.6233 27.4796 32.3123 27.839 33.0004 28.198C33.3414 28.3759 33.6823 28.5537 34.0166 28.7421C34.3613 28.936 34.7001 29.1387 35.038 29.3409C35.2306 29.4562 35.4229 29.5713 35.6158 29.6845C35.9024 29.8499 36.0175 30.0921 35.9979 30.4254C35.944 31.3631 35.7848 32.2839 35.2289 33.0752C34.9962 33.4038 34.6656 33.6915 34.3325 33.9241C33.4093 34.5572 32.3782 34.9481 31.2811 35.1879C30.2843 35.4061 29.29 35.327 28.3349 35.0344C26.4908 34.4781 24.6736 33.8402 23.0009 32.8738C21.4825 31.9937 20.1013 30.9314 18.8229 29.7444C17.2041 28.2361 15.7592 26.591 14.591 24.7182C13.8293 23.5024 13.2857 22.1931 12.7934 20.8574C12.4946 20.0517 12.2007 19.2532 12.0685 18.3995C11.9167 17.4331 12.022 16.5027 12.3379 15.5866C12.622 14.7593 12.9771 13.968 13.5134 13.2606C13.9346 12.7114 14.4612 12.3086 15.142 12.1287C15.5267 12.029 15.9138 11.9437 16.3008 11.8583C16.4632 11.8225 16.6256 11.7867 16.7878 11.7498Z" fill="white"/>
</svg>
