<svg width="60" height="70" viewBox="0 0 60 70" fill="none" xmlns="http://www.w3.org/2000/svg">
<path d="M30.2066 51.5108C30.3333 48.7868 25.9863 47.4423 24.1096 49.5539C20.0627 53.8294 12.4656 61.596 12.0289 62.5526C10.8721 65.4691 16.2958 67.3298 19.736 68.4556C23.4729 69.6805 26.133 70.1792 27.7098 69.943C28.8498 69.7359 29.5832 69.2197 29.9432 68.3885C30.2399 67.674 30.2099 52.1495 30.2066 51.5108ZM28.4065 1.87223C28.1398 0.968114 27.4231 0.384817 26.2497 0.122333C22.7928 -0.670951 9.6954 2.56635 7.25526 4.85871C6.47522 5.55283 6.1952 6.3607 6.42855 7.27356L23.0462 30.6054C26.4397 35.3535 30.7066 33.9273 30.4266 28.6193H30.4233C30.2033 25.1225 28.6098 3.02715 28.4065 1.87223ZM21.3761 44.4383C24.5163 43.5926 24.2829 39.5649 21.6094 38.6199C14.479 36.0505 4.74178 32.4545 3.99174 32.4545C1.07157 32.3028 0.508204 35.9572 0.211521 38.5675C-0.0551615 40.9298 -0.0684954 43.0938 0.164851 45.0683C0.384864 47.1507 0.901561 49.2768 3.27503 49.3993C4.30509 49.3964 21.2194 44.4821 21.3761 44.4383ZM58.3815 35.1493C59.725 34.3298 59.5216 33.1078 59.5383 32.7053C59.1783 29.7188 53.4379 22.1768 50.5644 20.9548C49.471 20.5115 48.5176 20.5377 47.7043 21.0394C46.6275 21.6781 36.9036 34.0002 36.3269 34.5106C34.4368 36.7476 37.1403 39.9674 39.9672 39.317L39.9205 39.4016C41.0572 39.0662 57.5015 35.6626 58.3815 35.1493ZM41.0705 45.4562C38.1337 44.5375 35.3636 47.8185 37.0703 50.0672C37.5537 50.7875 46.4342 63.7892 47.2142 64.2734C47.9643 64.8304 48.9043 64.9121 49.9811 64.5504C52.9979 63.4947 59.5316 56.1626 59.955 53.3015C60.125 52.2866 59.815 51.4962 59.0016 50.9275C58.3449 50.4142 41.0705 45.4562 41.0705 45.4562Z" fill="#F44336"/>
</svg>
